<?xml version="1.0" standalone="no"?><svg xmlns="http://www.w3.org/2000/svg" viewBox="0 0 1440 320"><path fill="#0099ff" fill-opacity="1" d="M0,288L12.6,256C25.3,224,51,160,76,117.3C101.1,75,126,53,152,85.3C176.8,117,202,203,227,240C252.6,277,278,267,303,234.7C328.4,203,354,149,379,117.3C404.2,85,429,75,455,80C480,85,505,107,531,112C555.8,117,581,107,606,96C631.6,85,657,75,682,80C707.4,85,733,107,758,128C783.2,149,808,171,834,160C858.9,149,884,107,909,117.3C934.7,128,960,192,985,197.3C1010.5,203,1036,149,1061,154.7C1086.3,160,1112,224,1137,208C1162.1,192,1187,96,1213,69.3C1237.9,43,1263,85,1288,133.3C1313.7,181,1339,235,1364,250.7C1389.5,267,1415,245,1427,234.7L1440,224L1440,0L1427.4,0C1414.7,0,1389,0,1364,0C1338.9,0,1314,0,1288,0C1263.2,0,1238,0,1213,0C1187.4,0,1162,0,1137,0C1111.6,0,1086,0,1061,0C1035.8,0,1011,0,985,0C960,0,935,0,909,0C884.2,0,859,0,834,0C808.4,0,783,0,758,0C732.6,0,707,0,682,0C656.8,0,632,0,606,0C581.1,0,556,0,531,0C505.3,0,480,0,455,0C429.5,0,404,0,379,0C353.7,0,328,0,303,0C277.9,0,253,0,227,0C202.1,0,177,0,152,0C126.3,0,101,0,76,0C50.5,0,25,0,13,0L0,0Z"></path></svg>