<svg id="visual" viewBox="0 0 900 600" width="900" height="600" xmlns="http://www.w3.org/2000/svg" xmlns:xlink="http://www.w3.org/1999/xlink" version="1.1"><rect x="0" y="0" width="900" height="600" fill="#f0f1f3"></rect><defs><linearGradient id="grad1_0" x1="33.3%" y1="0%" x2="100%" y2="100%"><stop offset="20%" stop-color="#4facf7" stop-opacity="1"></stop><stop offset="80%" stop-color="#4facf7" stop-opacity="1"></stop></linearGradient></defs><defs><linearGradient id="grad1_1" x1="33.3%" y1="0%" x2="100%" y2="100%"><stop offset="20%" stop-color="#4facf7" stop-opacity="1"></stop><stop offset="80%" stop-color="#87bcf7" stop-opacity="1"></stop></linearGradient></defs><defs><linearGradient id="grad1_2" x1="33.3%" y1="0%" x2="100%" y2="100%"><stop offset="20%" stop-color="#afcdf6" stop-opacity="1"></stop><stop offset="80%" stop-color="#87bcf7" stop-opacity="1"></stop></linearGradient></defs><defs><linearGradient id="grad1_3" x1="33.3%" y1="0%" x2="100%" y2="100%"><stop offset="20%" stop-color="#afcdf6" stop-opacity="1"></stop><stop offset="80%" stop-color="#d1dff5" stop-opacity="1"></stop></linearGradient></defs><defs><linearGradient id="grad1_4" x1="33.3%" y1="0%" x2="100%" y2="100%"><stop offset="20%" stop-color="#f0f1f3" stop-opacity="1"></stop><stop offset="80%" stop-color="#d1dff5" stop-opacity="1"></stop></linearGradient></defs><defs><linearGradient id="grad2_0" x1="0%" y1="0%" x2="66.7%" y2="100%"><stop offset="20%" stop-color="#4facf7" stop-opacity="1"></stop><stop offset="80%" stop-color="#4facf7" stop-opacity="1"></stop></linearGradient></defs><defs><linearGradient id="grad2_1" x1="0%" y1="0%" x2="66.7%" y2="100%"><stop offset="20%" stop-color="#87bcf7" stop-opacity="1"></stop><stop offset="80%" stop-color="#4facf7" stop-opacity="1"></stop></linearGradient></defs><defs><linearGradient id="grad2_2" x1="0%" y1="0%" x2="66.7%" y2="100%"><stop offset="20%" stop-color="#87bcf7" stop-opacity="1"></stop><stop offset="80%" stop-color="#afcdf6" stop-opacity="1"></stop></linearGradient></defs><defs><linearGradient id="grad2_3" x1="0%" y1="0%" x2="66.7%" y2="100%"><stop offset="20%" stop-color="#d1dff5" stop-opacity="1"></stop><stop offset="80%" stop-color="#afcdf6" stop-opacity="1"></stop></linearGradient></defs><defs><linearGradient id="grad2_4" x1="0%" y1="0%" x2="66.7%" y2="100%"><stop offset="20%" stop-color="#d1dff5" stop-opacity="1"></stop><stop offset="80%" stop-color="#f0f1f3" stop-opacity="1"></stop></linearGradient></defs><g transform="translate(900, 0)"><path d="M0 513.8C-40.7 461.9 -81.3 410 -127.3 391.8C-173.3 373.6 -224.7 389.1 -277.4 381.9C-330.2 374.6 -384.4 344.5 -415.7 302C-447 259.5 -455.4 204.5 -467.9 152C-480.5 99.6 -497.1 49.8 -513.8 0L0 0Z" fill="#e1e8f4"></path><path d="M0 411C-32.5 369.5 -65 328 -101.9 313.5C-138.7 298.9 -179.7 311.3 -221.9 305.5C-264.2 299.7 -307.5 275.6 -332.5 241.6C-357.6 207.6 -364.3 163.6 -374.3 121.6C-384.4 79.7 -397.7 39.8 -411 0L0 0Z" fill="#c1d6f5"></path><path d="M0 308.3C-24.4 277.1 -48.8 246 -76.4 235.1C-104 224.2 -134.8 233.5 -166.5 229.1C-198.1 224.7 -230.6 206.7 -249.4 181.2C-268.2 155.7 -273.2 122.7 -280.8 91.2C-288.3 59.8 -298.3 29.9 -308.3 0L0 0Z" fill="#9cc4f6"></path><path d="M0 205.5C-16.3 184.8 -32.5 164 -50.9 156.7C-69.3 149.5 -89.9 155.7 -111 152.7C-132.1 149.8 -153.7 137.8 -166.3 120.8C-178.8 103.8 -182.2 81.8 -187.2 60.8C-192.2 39.8 -198.9 19.9 -205.5 0L0 0Z" fill="#6eb4f7"></path><path d="M0 102.8C-8.1 92.4 -16.3 82 -25.5 78.4C-34.7 74.7 -44.9 77.8 -55.5 76.4C-66 74.9 -76.9 68.9 -83.1 60.4C-89.4 51.9 -91.1 40.9 -93.6 30.4C-96.1 19.9 -99.4 10 -102.8 0L0 0Z" fill="#4facf7"></path></g><g transform="translate(0, 600)"><path d="M0 -513.8C48.2 -485.5 96.4 -457.2 139.4 -428.9C182.4 -400.7 220.2 -372.4 246.9 -339.8C273.5 -307.2 289.1 -270.1 334.1 -242.8C379.2 -215.4 453.8 -197.6 488.6 -158.8C523.5 -119.9 518.7 -60 513.8 0L0 0Z" fill="#e1e8f4"></path><path d="M0 -411C38.5 -388.4 77.1 -365.8 111.5 -343.1C145.9 -320.5 176.2 -297.9 197.5 -271.8C218.8 -245.7 231.3 -216.1 267.3 -194.2C303.3 -172.3 363 -158.1 390.9 -127C418.8 -95.9 414.9 -48 411 0L0 0Z" fill="#c1d6f5"></path><path d="M0 -308.3C28.9 -291.3 57.8 -274.3 83.6 -257.4C109.4 -240.4 132.1 -223.5 148.1 -203.9C164.1 -184.3 173.4 -162.1 200.5 -145.7C227.5 -129.2 272.3 -118.6 293.2 -95.3C314.1 -72 311.2 -36 308.3 0L0 0Z" fill="#9cc4f6"></path><path d="M0 -205.5C19.3 -194.2 38.5 -182.9 55.7 -171.6C72.9 -160.3 88.1 -149 98.7 -135.9C109.4 -122.9 115.6 -108.1 133.6 -97.1C151.7 -86.1 181.5 -79 195.5 -63.5C209.4 -48 207.5 -24 205.5 0L0 0Z" fill="#6eb4f7"></path><path d="M0 -102.8C9.6 -97.1 19.3 -91.4 27.9 -85.8C36.5 -80.1 44 -74.5 49.4 -68C54.7 -61.4 57.8 -54 66.8 -48.6C75.8 -43.1 90.8 -39.5 97.7 -31.8C104.7 -24 103.7 -12 102.8 0L0 0Z" fill="#4facf7"></path></g></svg>