<svg id="visual" viewBox="0 0 900 600" width="900" height="600" xmlns="http://www.w3.org/2000/svg" xmlns:xlink="http://www.w3.org/1999/xlink" version="1.1"><path d="M0 376L10.7 368.8C21.3 361.7 42.7 347.3 64.2 349.8C85.7 352.3 107.3 371.7 128.8 368C150.3 364.3 171.7 337.7 193 339.5C214.3 341.3 235.7 371.7 257 376.7C278.3 381.7 299.7 361.3 321.2 361C342.7 360.7 364.3 380.3 385.8 380.3C407.3 380.3 428.7 360.7 450 347.5C471.3 334.3 492.7 327.7 514.2 335.5C535.7 343.3 557.3 365.7 578.8 375.5C600.3 385.3 621.7 382.7 643 373.8C664.3 365 685.7 350 707 350.2C728.3 350.3 749.7 365.7 771.2 376.2C792.7 386.7 814.3 392.3 835.8 382C857.3 371.7 878.7 345.3 889.3 332.2L900 319L900 601L889.3 601C878.7 601 857.3 601 835.8 601C814.3 601 792.7 601 771.2 601C749.7 601 728.3 601 707 601C685.7 601 664.3 601 643 601C621.7 601 600.3 601 578.8 601C557.3 601 535.7 601 514.2 601C492.7 601 471.3 601 450 601C428.7 601 407.3 601 385.8 601C364.3 601 342.7 601 321.2 601C299.7 601 278.3 601 257 601C235.7 601 214.3 601 193 601C171.7 601 150.3 601 128.8 601C107.3 601 85.7 601 64.2 601C42.7 601 21.3 601 10.7 601L0 601Z" fill="#91d0e1"></path><path d="M0 387L10.7 391.8C21.3 396.7 42.7 406.3 64.2 400.5C85.7 394.7 107.3 373.3 128.8 373.5C150.3 373.7 171.7 395.3 193 398C214.3 400.7 235.7 384.3 257 384.7C278.3 385 299.7 402 321.2 407.2C342.7 412.3 364.3 405.7 385.8 394.3C407.3 383 428.7 367 450 358.5C471.3 350 492.7 349 514.2 352.3C535.7 355.7 557.3 363.3 578.8 366.5C600.3 369.7 621.7 368.3 643 377.2C664.3 386 685.7 405 707 405C728.3 405 749.7 386 771.2 375.2C792.7 364.3 814.3 361.7 835.8 363.2C857.3 364.7 878.7 370.3 889.3 373.2L900 376L900 601L889.3 601C878.7 601 857.3 601 835.8 601C814.3 601 792.7 601 771.2 601C749.7 601 728.3 601 707 601C685.7 601 664.3 601 643 601C621.7 601 600.3 601 578.8 601C557.3 601 535.7 601 514.2 601C492.7 601 471.3 601 450 601C428.7 601 407.3 601 385.8 601C364.3 601 342.7 601 321.2 601C299.7 601 278.3 601 257 601C235.7 601 214.3 601 193 601C171.7 601 150.3 601 128.8 601C107.3 601 85.7 601 64.2 601C42.7 601 21.3 601 10.7 601L0 601Z" fill="#81cbe3"></path><path d="M0 402L10.7 408.2C21.3 414.3 42.7 426.7 64.2 428C85.7 429.3 107.3 419.7 128.8 414.2C150.3 408.7 171.7 407.3 193 405.2C214.3 403 235.7 400 257 405.3C278.3 410.7 299.7 424.3 321.2 423.8C342.7 423.3 364.3 408.7 385.8 401C407.3 393.3 428.7 392.7 450 400.7C471.3 408.7 492.7 425.3 514.2 430.8C535.7 436.3 557.3 430.7 578.8 423C600.3 415.3 621.7 405.7 643 407C664.3 408.3 685.7 420.7 707 428.2C728.3 435.7 749.7 438.3 771.2 436.3C792.7 434.3 814.3 427.7 835.8 424.2C857.3 420.7 878.7 420.3 889.3 420.2L900 420L900 601L889.3 601C878.7 601 857.3 601 835.8 601C814.3 601 792.7 601 771.2 601C749.7 601 728.3 601 707 601C685.7 601 664.3 601 643 601C621.7 601 600.3 601 578.8 601C557.3 601 535.7 601 514.2 601C492.7 601 471.3 601 450 601C428.7 601 407.3 601 385.8 601C364.3 601 342.7 601 321.2 601C299.7 601 278.3 601 257 601C235.7 601 214.3 601 193 601C171.7 601 150.3 601 128.8 601C107.3 601 85.7 601 64.2 601C42.7 601 21.3 601 10.7 601L0 601Z" fill="#71c6e5"></path><path d="M0 421L10.7 423.3C21.3 425.7 42.7 430.3 64.2 439C85.7 447.7 107.3 460.3 128.8 466.3C150.3 472.3 171.7 471.7 193 465C214.3 458.3 235.7 445.7 257 446.8C278.3 448 299.7 463 321.2 470.2C342.7 477.3 364.3 476.7 385.8 471.3C407.3 466 428.7 456 450 452.5C471.3 449 492.7 452 514.2 452.2C535.7 452.3 557.3 449.7 578.8 449.5C600.3 449.3 621.7 451.7 643 452.3C664.3 453 685.7 452 707 453.7C728.3 455.3 749.7 459.7 771.2 457.8C792.7 456 814.3 448 835.8 448.2C857.3 448.3 878.7 456.7 889.3 460.8L900 465L900 601L889.3 601C878.7 601 857.3 601 835.8 601C814.3 601 792.7 601 771.2 601C749.7 601 728.3 601 707 601C685.7 601 664.3 601 643 601C621.7 601 600.3 601 578.8 601C557.3 601 535.7 601 514.2 601C492.7 601 471.3 601 450 601C428.7 601 407.3 601 385.8 601C364.3 601 342.7 601 321.2 601C299.7 601 278.3 601 257 601C235.7 601 214.3 601 193 601C171.7 601 150.3 601 128.8 601C107.3 601 85.7 601 64.2 601C42.7 601 21.3 601 10.7 601L0 601Z" fill="#60c0e7"></path><path d="M0 481L10.7 479.8C21.3 478.7 42.7 476.3 64.2 476.7C85.7 477 107.3 480 128.8 478.3C150.3 476.7 171.7 470.3 193 468.2C214.3 466 235.7 468 257 473.2C278.3 478.3 299.7 486.7 321.2 491.7C342.7 496.7 364.3 498.3 385.8 495.7C407.3 493 428.7 486 450 478.5C471.3 471 492.7 463 514.2 459.2C535.7 455.3 557.3 455.7 578.8 458C600.3 460.3 621.7 464.7 643 467.3C664.3 470 685.7 471 707 469.8C728.3 468.7 749.7 465.3 771.2 465.2C792.7 465 814.3 468 835.8 469C857.3 470 878.7 469 889.3 468.5L900 468L900 601L889.3 601C878.7 601 857.3 601 835.8 601C814.3 601 792.7 601 771.2 601C749.7 601 728.3 601 707 601C685.7 601 664.3 601 643 601C621.7 601 600.3 601 578.8 601C557.3 601 535.7 601 514.2 601C492.7 601 471.3 601 450 601C428.7 601 407.3 601 385.8 601C364.3 601 342.7 601 321.2 601C299.7 601 278.3 601 257 601C235.7 601 214.3 601 193 601C171.7 601 150.3 601 128.8 601C107.3 601 85.7 601 64.2 601C42.7 601 21.3 601 10.7 601L0 601Z" fill="#4fbae9"></path><path d="M0 506L10.7 509.2C21.3 512.3 42.7 518.7 64.2 522C85.7 525.3 107.3 525.7 128.8 521.7C150.3 517.7 171.7 509.3 193 503.8C214.3 498.3 235.7 495.7 257 496.8C278.3 498 299.7 503 321.2 503.5C342.7 504 364.3 500 385.8 500C407.3 500 428.7 504 450 507C471.3 510 492.7 512 514.2 514.3C535.7 516.7 557.3 519.3 578.8 520.8C600.3 522.3 621.7 522.7 643 523C664.3 523.3 685.7 523.7 707 520.8C728.3 518 749.7 512 771.2 512.3C792.7 512.7 814.3 519.3 835.8 522.3C857.3 525.3 878.7 524.7 889.3 524.3L900 524L900 601L889.3 601C878.7 601 857.3 601 835.8 601C814.3 601 792.7 601 771.2 601C749.7 601 728.3 601 707 601C685.7 601 664.3 601 643 601C621.7 601 600.3 601 578.8 601C557.3 601 535.7 601 514.2 601C492.7 601 471.3 601 450 601C428.7 601 407.3 601 385.8 601C364.3 601 342.7 601 321.2 601C299.7 601 278.3 601 257 601C235.7 601 214.3 601 193 601C171.7 601 150.3 601 128.8 601C107.3 601 85.7 601 64.2 601C42.7 601 21.3 601 10.7 601L0 601Z" fill="#3eb4ec"></path><path d="M0 536L10.7 537.7C21.3 539.3 42.7 542.7 64.2 544.8C85.7 547 107.3 548 128.8 548.2C150.3 548.3 171.7 547.7 193 546.7C214.3 545.7 235.7 544.3 257 544.5C278.3 544.7 299.7 546.3 321.2 544.5C342.7 542.7 364.3 537.3 385.8 536.7C407.3 536 428.7 540 450 540.8C471.3 541.7 492.7 539.3 514.2 537.8C535.7 536.3 557.3 535.7 578.8 534.5C600.3 533.3 621.7 531.7 643 530.5C664.3 529.3 685.7 528.7 707 528.8C728.3 529 749.7 530 771.2 532C792.7 534 814.3 537 835.8 539.3C857.3 541.7 878.7 543.3 889.3 544.2L900 545L900 601L889.3 601C878.7 601 857.3 601 835.8 601C814.3 601 792.7 601 771.2 601C749.7 601 728.3 601 707 601C685.7 601 664.3 601 643 601C621.7 601 600.3 601 578.8 601C557.3 601 535.7 601 514.2 601C492.7 601 471.3 601 450 601C428.7 601 407.3 601 385.8 601C364.3 601 342.7 601 321.2 601C299.7 601 278.3 601 257 601C235.7 601 214.3 601 193 601C171.7 601 150.3 601 128.8 601C107.3 601 85.7 601 64.2 601C42.7 601 21.3 601 10.7 601L0 601Z" fill="#2badee"></path></svg>