<?xml version="1.0" standalone="no"?><svg xmlns="http://www.w3.org/2000/svg" viewBox="0 0 1440 320"><path fill="#0099ff" fill-opacity="1" d="M0,96L7.1,101.3C14.1,107,28,117,42,133.3C56.5,149,71,171,85,165.3C98.8,160,113,128,127,101.3C141.2,75,155,53,169,80C183.5,107,198,181,212,229.3C225.9,277,240,299,254,277.3C268.2,256,282,192,296,144C310.6,96,325,64,339,69.3C352.9,75,367,117,381,122.7C395.3,128,409,96,424,106.7C437.6,117,452,171,466,170.7C480,171,494,117,508,117.3C522.4,117,536,171,551,186.7C564.7,203,579,181,593,165.3C607.1,149,621,139,635,117.3C649.4,96,664,64,678,42.7C691.8,21,706,11,720,37.3C734.1,64,748,128,762,144C776.5,160,791,128,805,112C818.8,96,833,96,847,90.7C861.2,85,875,75,889,80C903.5,85,918,107,932,117.3C945.9,128,960,128,974,112C988.2,96,1002,64,1016,74.7C1030.6,85,1045,139,1059,165.3C1072.9,192,1087,192,1101,176C1115.3,160,1129,128,1144,128C1157.6,128,1172,160,1186,160C1200,160,1214,128,1228,112C1242.4,96,1256,96,1271,101.3C1284.7,107,1299,117,1313,128C1327.1,139,1341,149,1355,165.3C1369.4,181,1384,203,1398,181.3C1411.8,160,1426,96,1433,64L1440,32L1440,0L1432.9,0C1425.9,0,1412,0,1398,0C1383.5,0,1369,0,1355,0C1341.2,0,1327,0,1313,0C1298.8,0,1285,0,1271,0C1256.5,0,1242,0,1228,0C1214.1,0,1200,0,1186,0C1171.8,0,1158,0,1144,0C1129.4,0,1115,0,1101,0C1087.1,0,1073,0,1059,0C1044.7,0,1031,0,1016,0C1002.4,0,988,0,974,0C960,0,946,0,932,0C917.6,0,904,0,889,0C875.3,0,861,0,847,0C832.9,0,819,0,805,0C790.6,0,776,0,762,0C748.2,0,734,0,720,0C705.9,0,692,0,678,0C663.5,0,649,0,635,0C621.2,0,607,0,593,0C578.8,0,565,0,551,0C536.5,0,522,0,508,0C494.1,0,480,0,466,0C451.8,0,438,0,424,0C409.4,0,395,0,381,0C367.1,0,353,0,339,0C324.7,0,311,0,296,0C282.4,0,268,0,254,0C240,0,226,0,212,0C197.6,0,184,0,169,0C155.3,0,141,0,127,0C112.9,0,99,0,85,0C70.6,0,56,0,42,0C28.2,0,14,0,7,0L0,0Z"></path></svg>