<?xml version="1.0" standalone="no"?><svg xmlns="http://www.w3.org/2000/svg" viewBox="0 0 1440 320"><path fill="#0099ff" fill-opacity="0.83" d="M0,32L18.5,58.7C36.9,85,74,139,111,165.3C147.7,192,185,192,222,208C258.5,224,295,256,332,229.3C369.2,203,406,117,443,117.3C480,117,517,203,554,208C590.8,213,628,139,665,96C701.5,53,738,43,775,64C812.3,85,849,139,886,144C923.1,149,960,107,997,128C1033.8,149,1071,235,1108,234.7C1144.6,235,1182,149,1218,128C1255.4,107,1292,149,1329,144C1366.2,139,1403,85,1422,58.7L1440,32L1440,320L1421.5,320C1403.1,320,1366,320,1329,320C1292.3,320,1255,320,1218,320C1181.5,320,1145,320,1108,320C1070.8,320,1034,320,997,320C960,320,923,320,886,320C849.2,320,812,320,775,320C738.5,320,702,320,665,320C627.7,320,591,320,554,320C516.9,320,480,320,443,320C406.2,320,369,320,332,320C295.4,320,258,320,222,320C184.6,320,148,320,111,320C73.8,320,37,320,18,320L0,320Z"></path></svg>